<?xml version="1.0" encoding="UTF-8" standalone="no"?>
<!DOCTYPE svg PUBLIC "-//W3C//DTD SVG 1.1//EN" "http://www.w3.org/Graphics/SVG/1.1/DTD/svg11.dtd">
<svg width="100%" height="100%" viewBox="0 0 4 4" version="1.1" xmlns="http://www.w3.org/2000/svg" xmlns:xlink="http://www.w3.org/1999/xlink" xml:space="preserve" xmlns:serif="http://www.serif.com/" style="fill-rule:evenodd;clip-rule:evenodd;stroke-linejoin:round;stroke-miterlimit:2;">
    <path d="M3.486,2.196C3.494,2.132 3.5,2.068 3.5,2C3.5,1.932 3.494,1.868 3.486,1.804L3.908,1.474C3.946,1.444 3.956,1.39 3.932,1.346L3.532,0.654C3.508,0.61 3.454,0.594 3.41,0.61L2.912,0.81C2.808,0.73 2.696,0.664 2.574,0.614L2.498,0.084C2.492,0.036 2.45,-0 2.4,-0L1.6,-0C1.55,-0 1.508,0.036 1.502,0.084L1.426,0.614C1.304,0.664 1.192,0.732 1.088,0.81L0.59,0.61C0.544,0.592 0.492,0.61 0.468,0.654L0.068,1.346C0.042,1.39 0.054,1.444 0.092,1.474L0.514,1.804C0.506,1.868 0.5,1.934 0.5,2C0.5,2.066 0.506,2.132 0.514,2.196L0.092,2.526C0.054,2.556 0.044,2.61 0.068,2.654L0.468,3.346C0.492,3.39 0.546,3.406 0.59,3.39L1.088,3.19C1.192,3.27 1.304,3.336 1.426,3.386L1.502,3.916C1.508,3.964 1.55,4 1.6,4L2.4,4C2.45,4 2.492,3.964 2.498,3.916L2.574,3.386C2.696,3.336 2.808,3.268 2.912,3.19L3.41,3.39C3.456,3.408 3.508,3.39 3.532,3.346L3.932,2.654C3.956,2.61 3.946,2.556 3.908,2.526L3.486,2.196ZM2,1.045C2.527,1.045 2.955,1.473 2.955,2C2.955,2.527 2.527,2.955 2,2.955C1.473,2.955 1.045,2.527 1.045,2C1.045,1.473 1.473,1.045 2,1.045ZM2,2.7C1.614,2.7 1.3,2.386 1.3,2C1.3,1.614 1.614,1.3 2,1.3C2.386,1.3 2.7,1.614 2.7,2C2.7,2.386 2.386,2.7 2,2.7Z" style="fill:rgb(255,137,39);"/>
</svg>
