<?xml version="1.0" encoding="UTF-8"?>
<svg version="1.1" xmlns="http://www.w3.org/2000/svg" width="10" height="10">
<path d="M0 0 C3.3 0 6.6 0 10 0 C10 3.3 10 6.6 10 10 C6.7 10 3.4 10 0 10 C0 6.7 0 3.4 0 0 Z " fill="#C41B33" transform="translate(0,0)"/>
<path d="M0 0 C0.04241723 2.33294775 0.04092937 4.66702567 0 7 C-1 8 -1 8 -3.5 8.125 C-6 8 -6 8 -7 7 C-7.04063832 5.33382885 -7.042721 3.66611905 -7 2 C-2.25 0 -2.25 0 0 0 Z " fill="#606464" transform="translate(9,2)"/>
<path d="M0 0 C0 1.32 0 2.64 0 4 C-1.65 4 -3.3 4 -5 4 C-5 3.01 -5 2.02 -5 1 C-2 0 -2 0 0 0 Z " fill="#748774" transform="translate(8,6)"/>
</svg>
